<svg xmlns="http://www.w3.org/2000/svg" xmlns:xlink="http://www.w3.org/1999/xlink" fill="none" version="1.1" width="512" height="512" viewBox="0 0 512 512"><defs><clipPath id="master_svg0_30_0"><rect x="0" y="0" width="512" height="512" rx="0"/></clipPath><linearGradient x1="0.5" y1="0" x2="0.5" y2="1" id="master_svg1_21_2348"><stop offset="0%" stop-color="#FFFFFF" stop-opacity="1"/><stop offset="100%" stop-color="#FFFFFF" stop-opacity="0.800000011920929"/></linearGradient></defs><g clip-path="url(#master_svg0_30_0)"><g><path d="M302.144,150L302.144,235.368C302.144,240.624,304.21299999999997,245.668,307.903,249.41L311.759,253.321C324.317,266.05600000000004,346,257.164,346,239.27800000000002L346,150C346,138.95431,337.046,130,326,130L322.144,130C311.098,130,302.144,138.95431,302.144,150ZM166,362.952C166,373.997,174.95431,382.952,186,382.952L191.7627,382.952C202.8084,382.952,211.7627,373.997,211.7627,362.952L211.7627,293.168C211.7627,275.168,233.6818,266.329,246.1682,279.294L311.595,347.228C324.081,360.192,346,351.35400000000004,346,333.35400000000004L346,321.632C346,316.394,343.945,311.365,340.276,307.625L200.27609999999999,164.9348C187.7329,152.1506,166,161.0317,166,178.9417L166,362.952Z" fill="url(#master_svg1_21_2348)" fill-opacity="1"/></g></g></svg>